General                          : ChattChitto RG - Movies [R2L]
==========
Complete name                    : Morning Glory 2010 720p BRRip H264 [ChattChitto RG]
Format                           : MPEG-4
Format profile                   : Base Media
Codec ID                         : isom
File size                        : 1.99 GiB
Duration                         : 1h 47mn
Overall bit rate                 : 2 649 Kbps
Encoded date                     : UTC 2011-02-28 13:32:22

Video
==========
ID                               : 1
Format                           : AVC
Format/Info                      : Advanced Video Codec
Format profile                   : High@L4.1
Format settings, CABAC           : Yes
Format settings, ReFrames        : 4 frames
Codec ID                         : avc1
Codec ID/Info                    : Advanced Video Coding
Duration                         : 1h 47mn
Bit rate mode                    : Variable
Bit rate                         : 2 300 Kbps
Maximum bit rate                 : 20.2 Mbps
Width                            : 1 280 pixels
Height                           : 528 pixels
Display aspect ratio             : 2.40:1
Frame rate mode                  : Constant
Frame rate                       : 23.976 fps
Color space                      : YUV
Chroma subsampling               : 4:2:0
Bit depth                        : 8 bits
Scan type                        : Progressive
Bits/(Pixel*Frame)               : 0.142
Stream size                      : 1.73 GiB (87%)
Writing library                  : x264 core 84 r1400M 20fa784
Encoded date                     : UTC 2011-02-28 09:40:45

Audio
==========
ID                               : 2
Format                           : AAC
Format/Info                      : Advanced Audio Codec
Format profile                   : LC
Codec ID                         : 40
Duration                         : 1h 47mn
Bit rate mode                    : Variable
Bit rate                         : 345 Kbps
Maximum bit rate                 : 452 Kbps
Channel(s)                       : 6 channels
Channel positions                : Front: L C R, Side: L R, LFE
Sampling rate                    : 48.0 KHz
Compression mode                 : Lossy
Stream size                      : 266 MiB (13%)
Encoded date                     : UTC 2011-02-28 13:33:21

Subtitles                        : English | French | Romanian


----------------------------------------------------
IMDB Link: http://www.imdb.com/title/tt1126618/
----------------------------------------------------



Screen Shots:
==============    
http://chattchitto.net/chattchittorg/movies/brrip/2011/morning_glory/3.png 
http://chattchitto.net/chattchittorg/movies/brrip/2011/morning_glory/4.png 
http://chattchitto.net/chattchittorg/movies/brrip/2011/morning_glory/5.png 
http://chattchitto.net/chattchittorg/movies/brrip/2011/morning_glory/6.png 
http://chattchitto.net/chattchittorg/movies/brrip/2011/morning_glory/7.png



ScreenShots Comparison:
=========================  
http://screenshotcomparison.com/comparison/32292



Plot:
======
When hard-working TV producer Becky Fuller is fired from a local news program, her career begins to look as bleak as her hapless love life. Stumbling into a job at "Daybreak" (the last-place national morning news show), Becky decides to revitalize the show by bringing on legendary veteran TV anchor Mike Pomeroy. Unfortunately, Pomeroy refuses to cover morning show staples like celebrity gossip, weather,...



Release Info:
==============
original name .... : Morning Glory 2010 720p BRRip H264 [ChattChitto RG]
ripper.............: CHD
encoder............: Recalled2Life (R2L)
video codec........: H264/.MP4
video bitrate......: 2300 Kbps
audio codec........: AAC-LC
aspect ratio.......: 2.40:1
resolution.........: 1280 x 528
genre..............: Comedy | Drama | Romance
runtime............: 1h 47mn
language...........: English
rating.............: PG-13
subtitles..........: English | French | Romanian
sample.............: Yes
2ch Audio..........: 2ch Audio for XBox Viewers
Compatibility .....: XBox | PS3 | WD Live



Source:
========
Morning.Glory.2010.BluRay.720p.DTS.x264-CHD  THANKS!!



Notes:
=======
ChattChitto RG Encourages Burning this Film with ConvertXtoDVD and Playing with VLC media player.
XBox 360 | PS3 | WD Live - Compatible 
Enhanced for your viewing pleasure ;)